<?xml version="1.0" standalone="no"?>
<!DOCTYPE svg PUBLIC "-//W3C//DTD SVG 20010904//EN"
 "http://www.w3.org/TR/2001/REC-SVG-20010904/DTD/svg10.dtd">
<svg version="1.0" xmlns="http://www.w3.org/2000/svg"
 width="284.000000pt" height="284.000000pt" viewBox="0 0 284.000000 284.000000"
 preserveAspectRatio="xMidYMid meet">
<metadata>
Created by potrace 1.11, written by Peter Selinger 2001-2013
</metadata>
<g transform="translate(0.000000,284.000000) scale(0.100000,-0.100000)"
fill="#000000" stroke="none">
<path d="M1375 2536 c-27 -7 -64 -20 -81 -28 -32 -17 -104 -91 -123 -126 -10
-19 -8 -23 17 -36 27 -14 32 -12 150 56 l122 70 0 39 c0 44 -3 45 -85 25z"/>
<path d="M1497 2543 c-4 -3 -7 -21 -7 -38 0 -30 7 -36 86 -84 47 -28 88 -51
91 -51 3 0 18 -9 34 -21 28 -20 31 -20 54 -5 14 9 25 19 25 22 0 16 -33 64
-67 95 -46 44 -71 58 -138 75 -57 16 -69 17 -78 7z"/>
<path d="M1350 2370 l-115 -68 -3 -132 c-2 -89 1 -137 9 -146 6 -8 46 -33 88
-56 42 -22 88 -50 103 -60 14 -10 31 -18 38 -18 14 0 207 106 233 128 15 13
17 31 14 149 -2 73 -6 135 -8 137 -11 11 -231 136 -237 135 -4 -1 -59 -32
-122 -69z"/>
<path d="M1147 2323 c-8 -13 -26 -112 -33 -180 -4 -35 -12 -67 -18 -71 -6 -5
-68 -28 -138 -51 -70 -24 -130 -46 -132 -50 -5 -8 116 -81 134 -81 6 0 63 30
126 67 l115 68 -3 139 c-3 129 -4 140 -25 153 -11 8 -23 11 -26 6z"/>
<path d="M1773 2317 c-20 -9 -23 -18 -23 -65 l0 -55 30 41 c31 43 35 59 22 78
-5 8 -14 8 -29 1z"/>
<path d="M1090 1922 l-115 -67 -2 -138 -2 -137 84 -49 c46 -28 102 -59 124
-71 l40 -20 121 67 120 68 0 140 0 140 -116 68 c-64 37 -121 67 -128 67 -6 -1
-63 -31 -126 -68z"/>
<path d="M1603 1922 l-113 -67 0 -140 1 -140 82 -47 c45 -26 82 -46 83 -45 1
1 -1 20 -5 42 -8 49 4 137 25 177 21 41 83 101 127 121 l37 18 -33 32 c-19 18
-44 51 -56 75 -12 23 -25 42 -29 41 -4 -1 -58 -31 -119 -67z"/>
<path d="M650 1902 c-52 -26 -116 -62 -142 -80 l-48 -33 0 -107 0 -107 120
-69 120 -68 120 68 120 68 0 142 0 141 -80 47 c-44 25 -88 46 -97 46 -10 -1
-61 -22 -113 -48z"/>
<path d="M402 1727 c-11 -12 -28 -39 -37 -59 -15 -38 -21 -128 -7 -128 4 0 21
8 37 18 29 18 30 21 33 105 2 48 1 87 -1 87 -2 0 -13 -10 -25 -23z"/>
<path d="M402 1524 c-42 -25 -42 -25 -27 -55 33 -62 123 -98 248 -99 60 0 67
2 67 19 0 14 -26 34 -92 71 -51 29 -107 61 -123 71 -31 18 -31 18 -73 -7z"/>
<path d="M840 1481 c-83 -48 -116 -73 -118 -88 -3 -17 3 -22 30 -28 18 -3 45
-11 61 -17 40 -15 37 -64 -12 -164 l-38 -80 99 -58 100 -58 39 26 c21 14 41
26 43 26 3 0 39 21 81 46 l75 45 0 139 0 139 -67 39 c-38 21 -93 52 -123 69
l-55 30 -115 -66z"/>
<path d="M1491 1463 c-31 -26 -42 -73 -26 -111 16 -36 42 -52 84 -52 79 0 118
105 58 156 -34 29 -86 32 -116 7z"/>
<path d="M1752 1243 l3 -117 118 -68 c118 -67 130 -71 165 -43 1 1 -7 22 -18
46 -11 24 -20 66 -20 93 0 41 -5 54 -34 86 -18 20 -35 42 -37 48 -2 7 -28 16
-58 22 -30 6 -70 19 -88 30 l-34 20 3 -117z"/>
<path d="M1338 1200 c-26 -27 -30 -36 -25 -68 15 -92 130 -113 172 -31 13 25
14 37 5 65 -23 70 -99 87 -152 34z"/>
<path d="M1090 1031 l-115 -68 -3 -139 -2 -139 123 -71 124 -71 91 54 c51 29
92 57 92 61 0 5 14 22 30 39 l31 31 -3 118 -3 119 -115 67 c-63 37 -119 67
-125 67 -5 0 -62 -31 -125 -68z"/>
<path d="M1610 1032 l-115 -67 -3 -119 c-2 -109 -1 -121 18 -138 11 -10 27
-30 36 -43 15 -23 166 -115 188 -115 6 0 61 29 121 64 l110 64 3 144 3 144
-120 67 c-65 37 -121 67 -122 67 -2 0 -56 -31 -119 -68z"/>
<path d="M691 979 c-74 -130 -171 -315 -171 -325 1 -11 162 -104 181 -104 7 0
63 30 126 66 l113 66 0 141 0 142 -91 53 c-50 28 -94 52 -99 52 -4 0 -31 -41
-59 -91z"/>
<path d="M2032 978 c-22 -11 -22 -14 -20 -156 l3 -144 116 -68 117 -67 83 48
c46 27 88 50 94 52 5 2 -19 61 -55 130 l-65 127 -50 0 c-56 0 -138 33 -169 69
-21 24 -22 24 -54 9z"/>
<path d="M833 584 l-113 -66 0 -114 0 -115 214 3 c211 3 215 3 240 27 24 23
26 31 26 110 l0 86 -115 68 c-63 37 -120 67 -127 67 -7 0 -64 -30 -125 -66z"/>
<path d="M1863 583 l-113 -66 0 -88 c0 -85 1 -88 31 -113 l31 -26 209 0 209 0
0 114 0 114 -115 66 c-63 36 -120 66 -127 65 -7 0 -64 -30 -125 -66z"/>
<path d="M475 539 c-37 -119 -43 -187 -17 -219 19 -24 25 -25 124 -25 l103 0
3 110 2 110 -37 21 c-21 11 -64 35 -95 53 l-57 32 -26 -82z"/>
<path d="M2353 568 l-93 -52 0 -113 0 -113 98 0 c107 0 135 10 146 55 9 34
-10 143 -37 215 l-22 59 -92 -51z"/>
<path d="M1283 544 c-52 -33 -53 -34 -53 -84 0 -27 4 -50 8 -50 9 0 106 159
101 165 -2 1 -28 -12 -56 -31z"/>
<path d="M1631 533 c45 -77 81 -133 85 -133 2 0 4 25 4 55 0 55 0 56 -47 85
-61 39 -69 38 -42 -7z"/>
</g>
</svg>
